<?xml version="1.0" standalone="no"?>
<!DOCTYPE svg PUBLIC "-//W3C//DTD SVG 20010904//EN"
 "http://www.w3.org/TR/2001/REC-SVG-20010904/DTD/svg10.dtd">
<svg version="1.0" xmlns="http://www.w3.org/2000/svg"
 width="1750.000000pt" height="1750.000000pt" viewBox="0 0 1750.000000 1750.000000"
 preserveAspectRatio="xMidYMid meet">
<metadata>
Created by potrace 1.14, written by Peter Selinger 2001-2017
</metadata>
<g transform="translate(0.000000,1750.000000) scale(0.100000,-0.100000)"
fill="#000000" stroke="none">
<path d="M9664 17281 c-2 -2 -19 -6 -36 -7 -18 -2 -44 -6 -58 -9 -14 -4 -33
-8 -42 -8 -10 -1 -18 -4 -18 -7 0 -3 -8 -7 -17 -8 -33 -3 -48 -8 -63 -17 -8
-5 -24 -11 -35 -12 -11 -2 -29 -7 -40 -13 -21 -10 -77 -33 -85 -34 -3 -1 -11
-5 -18 -10 -7 -4 -16 -6 -19 -2 -3 3 -12 -2 -20 -10 -8 -8 -19 -12 -24 -9 -5
4 -9 1 -9 -5 0 -6 -4 -8 -10 -5 -5 3 -10 1 -10 -6 0 -7 -3 -10 -6 -7 -3 4 -17
0 -31 -7 -15 -8 -30 -12 -35 -9 -4 3 -8 0 -8 -5 0 -6 -9 -11 -19 -11 -11 0
-23 -5 -26 -10 -4 -6 -11 -8 -16 -5 -5 4 -9 1 -9 -6 0 -7 -3 -9 -7 -6 -3 4
-17 0 -30 -8 -13 -9 -28 -13 -33 -10 -6 3 -10 1 -10 -6 0 -7 -3 -9 -6 -6 -4 3
-16 1 -28 -5 -11 -7 -25 -13 -31 -13 -5 -1 -23 -7 -40 -14 -16 -7 -38 -13 -47
-14 -10 -1 -18 -4 -18 -8 0 -4 -15 -10 -32 -14 -18 -4 -35 -9 -38 -10 -3 -1
-13 -5 -22 -8 -10 -4 -26 -10 -35 -14 -10 -3 -21 -7 -25 -8 -5 -2 -9 -3 -10
-5 -2 -1 -10 -3 -18 -5 -8 -2 -28 -9 -45 -16 -16 -7 -34 -13 -40 -14 -5 -1
-27 -9 -49 -18 -21 -9 -45 -17 -52 -17 -8 0 -14 -5 -14 -11 0 -5 -5 -7 -10 -4
-6 4 -17 2 -24 -5 -8 -6 -23 -12 -34 -15 -11 -2 -39 -13 -62 -24 -24 -11 -47
-18 -51 -15 -5 3 -9 0 -9 -5 0 -6 -6 -11 -14 -11 -8 0 -22 -8 -32 -17 -10 -10
-18 -16 -19 -13 -2 7 -78 -32 -87 -45 -5 -6 -8 -6 -8 -1 0 6 -7 1 -15 -10 -8
-10 -15 -15 -15 -11 0 5 -7 2 -15 -5 -31 -28 -44 -38 -51 -38 -3 0 -28 -18
-54 -40 -26 -22 -50 -37 -54 -33 -3 3 -6 2 -6 -4 0 -6 -44 -56 -97 -111 -118
-121 -139 -146 -155 -183 -7 -16 -16 -29 -20 -29 -5 0 -8 -6 -8 -13 0 -7 -10
-30 -21 -52 -38 -71 -60 -165 -63 -270 -2 -63 1 -105 8 -114 9 -12 8 -13 -3
-6 -10 5 -12 4 -7 -4 4 -6 9 -24 12 -39 5 -34 9 -52 18 -77 10 -26 17 -49 18
-55 0 -3 6 -16 13 -30 7 -14 23 -46 36 -72 13 -27 27 -48 31 -48 5 0 8 -9 8
-20 0 -11 5 -20 10 -20 6 0 10 -4 10 -9 0 -5 7 -25 15 -45 8 -20 15 -38 16
-41 0 -2 5 -19 10 -37 10 -32 21 -114 20 -151 0 -11 5 -15 12 -10 9 5 9 3 1
-8 -9 -12 -11 -34 -4 -41 2 -2 4 -23 5 -48 2 -25 4 -45 5 -45 6 0 21 -262 22
-375 0 -52 4 -103 9 -112 5 -10 5 -19 0 -23 -6 -3 -6 -17 -1 -34 4 -16 5 -45
1 -63 -4 -18 -4 -46 -1 -63 4 -16 3 -40 -2 -52 -4 -14 -4 -23 3 -23 6 0 7 -5
2 -12 -7 -11 -11 -192 -17 -780 0 -82 -3 -148 -5 -148 -7 0 -86 45 -92 53 -3
5 -9 8 -13 7 -11 -2 -66 24 -66 32 0 5 -6 8 -13 8 -7 0 -23 9 -35 20 -12 11
-23 20 -26 20 -9 0 -101 64 -104 72 -2 5 -7 6 -12 3 -4 -2 -15 4 -25 15 -10
11 -24 20 -32 20 -7 0 -16 7 -19 15 -4 8 -14 15 -25 15 -10 0 -23 8 -28 18 -6
9 -11 13 -11 7 0 -6 -3 -6 -8 1 -10 14 -109 77 -115 73 -3 -2 -14 7 -26 21
-11 14 -20 21 -21 17 0 -5 -13 1 -29 12 -16 12 -34 21 -40 21 -6 0 -11 4 -11
10 0 5 -11 12 -25 16 -14 3 -25 10 -25 16 0 5 -4 7 -9 3 -5 -3 -12 -1 -15 4
-4 5 -32 22 -64 38 -31 15 -63 34 -70 41 -8 7 -18 10 -23 7 -5 -4 -9 -2 -9 2
0 13 -124 73 -150 73 -14 0 -19 4 -14 13 4 6 4 9 0 5 -5 -4 -19 -3 -32 2 -31
12 -73 22 -101 23 -13 1 -23 4 -23 7 0 17 -231 15 -241 -2 -7 -11 -9 -11 -9 0
0 8 -5 10 -12 5 -16 -9 -36 -14 -65 -16 -13 0 -23 -5 -23 -10 0 -5 -7 -7 -15
-3 -8 3 -15 0 -15 -6 0 -6 -3 -8 -6 -5 -4 4 -19 -2 -33 -11 -14 -10 -44 -27
-66 -37 -47 -24 -209 -181 -200 -195 3 -6 2 -10 -4 -10 -10 0 -50 -69 -47 -81
0 -4 -8 -17 -19 -29 -11 -12 -19 -24 -18 -26 1 -2 -4 -18 -11 -36 -15 -37 -22
-58 -26 -73 -1 -5 -7 -21 -12 -35 -5 -14 -11 -32 -13 -40 -2 -8 -8 -33 -13
-55 -6 -22 -14 -53 -17 -70 -20 -105 -24 -428 -5 -440 3 -2 5 -18 4 -34 -1
-17 2 -33 7 -36 4 -3 6 -12 3 -20 -3 -8 -2 -20 2 -27 7 -11 13 -41 16 -75 1
-7 4 -13 8 -13 4 0 6 -11 5 -25 -2 -14 0 -25 4 -25 4 0 7 -8 8 -17 4 -40 16
-83 22 -83 4 0 7 -8 8 -18 1 -9 3 -24 5 -32 2 -8 -4 -15 -12 -15 -8 0 -18 -4
-22 -10 -5 -7 -8 -7 -8 0 0 23 -962 23 -1000 0 -9 -6 -11 -4 -5 5 6 9 4 11 -6
5 -7 -5 -29 -10 -49 -11 -19 -1 -56 -5 -82 -8 -27 -3 -69 -8 -95 -11 -53 -6
-83 -11 -178 -29 -5 -1 -16 -6 -24 -10 -10 -7 -12 -5 -6 3 6 10 3 11 -14 2
-11 -7 -21 -9 -21 -6 0 3 -16 -1 -35 -10 -22 -8 -33 -10 -29 -3 5 7 3 8 -6 3
-13 -8 -153 -43 -207 -52 -18 -3 -33 -9 -33 -15 0 -5 -5 -6 -10 -3 -6 4 -17 1
-25 -5 -8 -7 -15 -10 -15 -7 0 4 -18 0 -39 -8 -22 -7 -42 -11 -45 -8 -3 4 -6
1 -6 -5 0 -6 -9 -9 -19 -7 -11 2 -25 -3 -31 -10 -6 -8 -18 -11 -26 -8 -8 3
-14 0 -14 -7 0 -6 -4 -9 -9 -5 -5 3 -22 0 -38 -6 -15 -6 -37 -15 -48 -20 -33
-13 -70 -23 -78 -21 -4 1 -7 -2 -7 -8 0 -5 -11 -10 -25 -10 -14 0 -25 -4 -25
-8 0 -5 -7 -9 -15 -10 -8 -1 -22 -3 -30 -4 -8 -1 -15 -6 -15 -11 0 -5 -7 -7
-15 -3 -8 3 -15 2 -15 -3 0 -5 -10 -12 -22 -16 -31 -10 -37 -12 -43 -15 -3 -1
-9 -3 -14 -4 -5 0 -13 -4 -17 -8 -4 -5 -16 -8 -26 -8 -10 0 -18 -4 -18 -10 0
-5 -6 -10 -13 -10 -7 0 -38 -12 -68 -27 -30 -15 -56 -28 -59 -28 -9 -3 -84
-36 -120 -53 -19 -9 -37 -17 -40 -17 -3 0 -15 -6 -27 -13 -13 -7 -23 -9 -23
-5 0 4 -4 2 -9 -5 -4 -7 -15 -14 -23 -16 -8 -1 -26 -9 -39 -17 -13 -8 -44 -24
-69 -34 -25 -11 -51 -25 -58 -32 -8 -7 -18 -11 -23 -8 -5 4 -9 2 -9 -3 0 -6
-12 -13 -27 -17 -15 -3 -30 -10 -33 -14 -3 -3 -36 -22 -73 -41 -38 -19 -85
-43 -105 -54 -21 -10 -40 -23 -44 -30 -4 -6 -8 -8 -8 -4 0 4 -17 -2 -37 -14
-69 -39 -88 -48 -101 -48 -7 0 -10 -4 -7 -10 3 -5 0 -10 -7 -10 -7 0 -50 -23
-96 -50 -46 -28 -87 -50 -92 -50 -5 0 -14 -8 -19 -17 -6 -10 -11 -15 -11 -10
0 6 -75 -37 -90 -53 -3 -3 -12 -6 -20 -8 -8 -2 -16 -8 -18 -13 -2 -5 -7 -9
-12 -9 -8 0 -135 -80 -157 -99 -7 -6 -17 -11 -23 -11 -5 0 -10 -5 -10 -11 0
-5 -4 -8 -9 -5 -5 3 -11 -1 -15 -9 -3 -8 -10 -15 -16 -15 -6 0 -17 -6 -24 -12
-8 -7 -24 -20 -36 -28 -13 -8 -34 -25 -48 -37 -14 -13 -28 -23 -31 -23 -4 0
-26 -18 -50 -40 -23 -22 -45 -40 -48 -40 -9 0 -165 -160 -156 -160 4 0 1 -6
-7 -13 -30 -25 -105 -172 -114 -223 -2 -16 -5 -29 -6 -29 -1 0 -3 -10 -4 -22
-2 -13 2 -23 8 -23 8 0 8 -2 0 -8 -12 -8 -13 -131 0 -151 7 -10 6 -12 -4 -6
-9 5 -11 4 -6 -4 7 -11 15 -46 20 -87 2 -11 6 -26 10 -33 4 -6 10 -24 12 -39
3 -15 12 -40 20 -56 8 -16 14 -35 14 -43 0 -7 5 -13 10 -13 6 0 10 -7 10 -15
0 -9 8 -30 17 -48 9 -18 16 -35 15 -39 -1 -5 3 -8 9 -8 5 0 7 -5 4 -10 -3 -5
-1 -10 5 -10 6 0 9 -4 6 -9 -3 -5 0 -14 7 -19 7 -6 19 -27 27 -47 7 -19 17
-35 22 -35 4 0 8 -5 8 -12 0 -6 11 -26 25 -44 14 -19 25 -36 25 -39 0 -3 10
-16 22 -29 13 -13 34 -39 48 -57 14 -18 33 -41 43 -51 9 -10 17 -21 17 -24 0
-7 60 -83 90 -115 8 -8 28 -32 44 -52 17 -20 34 -33 39 -30 6 3 7 2 4 -4 -7
-11 63 -80 76 -75 5 1 6 -2 2 -7 -3 -6 4 -15 15 -21 11 -6 18 -15 15 -21 -4
-5 -2 -9 3 -9 6 0 33 -21 61 -47 48 -46 71 -66 151 -130 19 -15 37 -30 40 -33
19 -19 119 -90 128 -90 5 0 12 -4 14 -8 5 -12 95 -72 108 -72 6 0 8 -4 5 -10
-3 -5 0 -10 7 -10 7 0 39 -18 70 -40 32 -22 69 -42 83 -46 14 -3 25 -10 25
-16 0 -5 5 -6 10 -3 6 3 10 3 10 -2 0 -9 61 -39 73 -35 4 1 7 -5 7 -13 0 -8 6
-15 13 -15 7 0 34 -13 60 -30 26 -16 47 -27 47 -25 0 3 18 -6 40 -20 22 -14
40 -23 40 -19 0 3 12 -3 27 -14 32 -21 94 -48 105 -44 5 1 8 -2 8 -7 0 -9 60
-37 72 -33 5 1 8 -2 8 -8 0 -5 9 -10 20 -10 11 0 20 -5 20 -11 0 -5 4 -8 9 -5
4 3 17 -1 27 -9 10 -8 29 -15 42 -15 12 0 22 -4 22 -8 0 -5 21 -15 47 -24 27
-9 95 -33 153 -54 58 -20 112 -38 120 -39 8 -1 27 -7 43 -13 15 -7 40 -14 55
-17 31 -7 41 -10 62 -18 21 -8 123 -32 137 -32 33 -1 33 -23 -1 -67 -19 -25
-32 -48 -29 -52 4 -3 1 -6 -5 -6 -7 0 -12 -7 -12 -15 0 -8 -4 -15 -10 -15 -5
0 -10 -7 -10 -15 0 -8 -5 -15 -11 -15 -5 0 -8 -4 -4 -9 3 -6 -2 -14 -11 -19
-9 -5 -15 -11 -14 -13 3 -7 -24 -63 -37 -77 -7 -7 -16 -24 -19 -38 -3 -13 -10
-24 -15 -24 -5 0 -9 -9 -9 -19 0 -11 -5 -21 -11 -23 -5 -2 -11 -11 -12 -20 -2
-9 -9 -23 -16 -32 -7 -9 -10 -16 -6 -16 3 0 -3 -12 -14 -26 -12 -15 -21 -32
-21 -38 0 -7 -6 -18 -13 -24 -6 -7 -12 -16 -13 -20 -1 -4 -7 -23 -15 -42 -7
-19 -12 -38 -11 -42 1 -5 -3 -8 -8 -8 -8 0 -29 -35 -35 -60 0 -3 -6 -15 -13
-28 -7 -12 -10 -28 -6 -35 4 -6 4 -9 -1 -5 -7 7 -83 -157 -101 -217 -8 -25
-31 -83 -48 -115 -7 -14 -12 -35 -11 -47 1 -12 -2 -20 -7 -17 -4 3 -8 -2 -8
-10 0 -8 -5 -27 -12 -43 -6 -15 -12 -30 -13 -33 -1 -3 -4 -12 -8 -20 -6 -17
-31 -93 -32 -100 0 -3 -14 -45 -29 -94 -16 -49 -29 -94 -30 -100 -1 -6 -5 -17
-9 -23 -5 -7 -6 -13 -3 -13 3 0 1 -12 -5 -26 -5 -15 -12 -43 -15 -63 -3 -20
-11 -44 -16 -55 -8 -14 -7 -17 4 -10 10 6 11 5 2 -7 -20 -26 -34 -79 -21 -79
8 0 8 -3 2 -8 -21 -14 -48 -144 -49 -239 -1 -24 -3 -43 -6 -43 -3 0 -6 -8 -7
-17 -3 -30 -13 -106 -19 -148 -3 -22 -6 -68 -7 -102 -1 -35 -5 -63 -9 -63 -4
0 -5 -12 -4 -27 2 -16 0 -36 -5 -45 -6 -10 -5 -19 1 -23 6 -4 7 -12 3 -18 -13
-19 -12 -320 1 -336 9 -12 8 -13 -3 -6 -10 6 -12 4 -6 -6 5 -7 10 -36 11 -64
5 -84 13 -137 37 -241 12 -47 32 -111 44 -133 6 -14 10 -28 7 -33 -3 -4 0 -8
6 -8 7 0 10 -7 6 -15 -3 -8 1 -18 9 -22 7 -5 14 -12 14 -16 0 -15 26 -67 33
-67 5 0 8 -7 8 -15 0 -8 34 -50 75 -92 41 -43 75 -74 75 -69 0 5 9 -1 20 -14
11 -13 20 -20 20 -16 0 4 14 -2 30 -14 17 -12 30 -18 30 -14 0 3 7 1 15 -6 8
-6 20 -8 26 -4 7 4 9 3 6 -3 -6 -10 27 -27 47 -24 4 1 14 -3 20 -9 7 -5 16 -7
19 -3 4 3 12 1 19 -4 7 -6 23 -9 36 -8 12 1 22 -2 22 -5 0 -4 8 -7 18 -7 9 0
42 -4 72 -8 30 -5 63 -9 73 -8 9 0 17 -3 17 -6 0 -4 12 -8 28 -8 43 -1 123
-12 134 -19 7 -4 8 -2 4 4 -5 9 -1 10 16 4 13 -5 40 -8 61 -7 21 1 40 -1 42
-5 2 -3 126 -4 277 -2 345 4 398 6 398 13 0 3 17 6 37 6 39 1 138 10 138 13 0
1 29 3 65 5 36 1 88 8 115 15 55 13 76 17 120 26 17 3 35 7 40 8 26 7 92 20
110 22 11 1 20 3 20 4 0 1 7 3 15 5 8 2 51 13 95 25 44 12 87 23 95 25 8 2 27
8 43 14 15 6 27 8 27 5 0 -4 7 -1 15 6 8 7 15 10 15 6 0 -4 12 2 27 11 17 12
24 13 19 4 -6 -8 1 -7 18 4 14 10 26 14 26 10 0 -4 6 -3 13 2 6 5 47 21 89 34
43 13 78 27 78 32 0 4 9 7 20 7 11 0 20 4 20 8 0 4 12 9 27 10 14 1 34 9 44
18 9 8 26 16 38 17 11 1 23 7 25 14 3 7 12 10 21 7 8 -3 15 -1 15 5 0 6 9 11
20 11 11 0 20 5 20 12 0 6 3 9 6 5 4 -3 19 0 35 9 16 8 30 14 31 13 2 0 15 4
31 10 26 10 27 9 17 -9 -6 -10 -10 -23 -9 -27 1 -4 1 -10 -1 -13 -6 -16 -13
-59 -14 -87 0 -18 -4 -33 -8 -33 -4 0 -5 -9 -3 -20 2 -11 -1 -22 -7 -26 -6 -4
-5 -10 3 -15 8 -5 9 -9 4 -9 -14 0 -18 -82 -17 -330 1 -261 3 -300 16 -300 6
0 5 -4 -3 -9 -13 -8 -13 -12 0 -27 11 -14 11 -16 1 -10 -11 7 -12 4 -4 -10 5
-11 11 -35 13 -54 2 -19 7 -37 11 -40 4 -3 8 -22 10 -43 1 -20 6 -37 10 -37 4
0 8 -9 8 -20 0 -10 4 -29 9 -42 12 -30 23 -61 27 -73 9 -33 44 -119 53 -129 6
-7 8 -16 4 -20 -4 -3 2 -13 13 -22 10 -8 12 -12 5 -8 -9 5 -6 -4 7 -23 12 -17
19 -33 15 -37 -3 -3 0 -6 7 -6 7 0 10 -3 7 -7 -4 -3 -3 -11 2 -17 7 -9 77
-139 125 -233 6 -13 14 -23 19 -23 4 0 7 -7 7 -15 0 -8 5 -15 10 -15 6 0 10
-6 10 -13 0 -12 10 -27 50 -74 6 -7 8 -13 4 -13 -4 0 1 -9 11 -20 10 -11 14
-20 10 -20 -4 0 2 -9 15 -20 13 -11 20 -20 16 -20 -7 0 4 -14 37 -51 9 -10 17
-21 17 -24 0 -10 105 -145 112 -145 5 0 8 -7 8 -15 0 -8 5 -15 12 -15 6 0 8
-3 5 -7 -4 -3 5 -16 18 -29 14 -13 25 -25 25 -28 0 -8 27 -41 71 -87 20 -21
34 -40 32 -43 -3 -2 5 -10 17 -16 12 -6 19 -14 16 -17 -3 -3 7 -18 22 -33 15
-15 45 -49 67 -76 22 -26 58 -68 80 -92 153 -168 145 -159 139 -165 -3 -3 4
-8 15 -12 12 -3 21 -10 21 -14 0 -5 27 -37 60 -72 33 -35 60 -65 60 -67 0 -4
34 -42 77 -87 12 -13 19 -26 16 -29 -4 -3 1 -6 10 -6 10 0 17 -4 17 -10 0 -5
24 -34 54 -65 30 -30 53 -55 50 -55 -3 0 8 -13 23 -29 37 -38 73 -84 73 -94 0
-5 4 -5 10 -2 5 3 10 0 10 -7 0 -12 24 -45 64 -90 8 -9 20 -26 26 -38 6 -11
16 -17 22 -14 6 4 8 3 4 -4 -3 -6 1 -17 9 -25 8 -9 15 -20 15 -25 0 -5 9 -17
20 -27 11 -10 20 -22 20 -27 0 -4 9 -17 20 -28 11 -11 20 -27 20 -35 0 -8 5
-15 12 -15 6 0 8 -3 5 -7 -4 -3 5 -22 20 -41 15 -20 20 -32 12 -28 -8 4 -6 1
4 -7 10 -9 17 -18 16 -22 -3 -9 54 -129 64 -133 4 -2 7 -12 7 -23 0 -10 4 -19
10 -19 5 0 9 -3 8 -7 -1 -5 7 -26 19 -48 11 -22 29 -56 38 -75 10 -19 23 -38
29 -42 6 -4 7 -8 2 -8 -5 0 -2 -8 7 -17 8 -10 15 -22 15 -26 0 -5 9 -20 21
-33 12 -13 21 -27 21 -31 0 -4 12 -18 27 -30 14 -13 23 -23 20 -23 -7 0 44
-47 92 -86 13 -10 30 -26 39 -34 9 -8 16 -13 16 -11 1 2 19 -5 41 -16 33 -17
117 -47 148 -52 4 0 8 -1 10 -2 15 -6 153 -3 187 4 25 5 51 9 58 10 6 0 12 3
12 7 0 4 6 7 13 7 20 0 131 55 140 70 4 7 13 13 19 13 6 0 41 31 77 69 83 88
78 81 133 180 11 20 24 41 29 47 5 6 6 14 2 17 -3 4 -1 7 5 7 10 0 23 25 21
44 0 5 3 12 8 15 12 8 113 211 113 228 0 7 4 13 9 13 5 0 14 14 20 30 5 17 19
44 30 59 11 16 18 31 14 35 -3 3 -1 6 5 6 7 0 12 5 12 11 0 5 13 24 30 42 16
18 30 37 30 44 0 6 8 18 19 25 10 7 19 18 20 23 2 11 38 59 91 123 6 6 8 12 5
12 -3 0 7 13 22 29 46 47 83 91 77 91 -4 0 41 52 89 102 9 10 15 18 12 18 -3
0 4 11 17 23 13 13 41 45 63 71 22 25 55 62 73 82 17 19 32 40 32 45 0 6 5 7
12 3 8 -5 9 -2 5 9 -4 10 -1 17 6 17 7 0 27 17 44 38 17 20 49 57 72 82 22 25
41 48 41 52 0 5 7 8 15 8 8 0 14 4 12 8 -2 8 70 95 134 162 14 15 36 42 49 60
13 18 38 47 56 65 18 18 30 36 27 39 -3 3 2 8 11 12 9 3 16 10 16 14 0 8 23
36 83 103 15 18 27 35 27 39 0 4 11 20 25 35 42 47 45 52 45 63 0 5 5 10 10
10 6 0 10 7 10 16 0 8 5 12 10 9 6 -3 10 -1 10 4 0 6 22 42 50 81 27 38 47 70
44 70 -3 0 2 7 10 16 9 8 28 36 43 62 15 26 31 49 35 50 4 2 8 10 8 18 0 8 4
14 9 14 8 0 12 10 20 45 1 6 9 14 17 18 8 5 12 12 9 18 -4 5 -2 9 3 9 4 0 14
16 22 35 8 19 18 35 23 35 5 0 7 7 3 15 -3 8 -1 15 4 15 8 0 52 81 55 100 0 3
13 32 29 65 16 33 29 66 29 73 0 6 4 12 9 12 4 0 7 3 6 8 -1 4 3 21 8 37 6 17
12 33 12 38 1 4 8 20 16 36 9 16 12 31 9 34 -3 4 -1 12 5 20 10 12 22 54 24
85 1 6 4 12 7 12 3 0 7 10 8 23 2 23 10 62 13 62 1 0 10 63 12 85 0 8 5 21 11
27 6 9 6 13 -2 13 -7 0 -9 5 -4 13 4 6 9 26 11 42 5 59 4 382 -3 455 -3 41 -7
94 -8 117 -1 24 -5 43 -8 43 -3 0 -6 6 -6 13 -1 18 -11 82 -14 85 -1 1 -2 10
-3 20 -1 9 -5 23 -10 30 -6 11 -1 12 25 8 19 -3 35 -10 37 -16 2 -5 8 -7 13
-4 6 3 16 0 24 -6 8 -7 15 -9 15 -4 0 5 4 3 9 -4 4 -7 14 -14 22 -16 8 -1 28
-10 45 -19 17 -9 34 -13 38 -10 3 4 6 2 6 -4 0 -10 46 -28 63 -25 4 1 7 -2 7
-8 0 -6 3 -9 8 -8 4 1 27 -7 52 -18 25 -10 48 -18 53 -16 4 1 7 -2 7 -7 0 -5
15 -12 33 -16 35 -8 44 -11 52 -15 3 -1 8 -3 13 -4 4 -1 12 -4 17 -7 6 -4 24
-10 40 -14 17 -5 37 -10 45 -12 8 -2 21 -5 28 -5 6 -1 12 -6 12 -11 0 -5 7 -7
15 -3 8 3 15 1 15 -4 0 -6 10 -10 23 -10 13 0 29 -6 36 -12 11 -11 12 -10 6 2
-7 12 -6 13 6 4 14 -12 71 -28 99 -28 8 0 17 -3 20 -7 3 -4 19 -8 35 -10 17
-2 35 -7 41 -11 7 -5 16 -8 20 -7 5 1 12 0 17 -1 4 -1 16 -4 27 -5 11 -1 21
-3 23 -5 3 -2 21 -6 67 -14 51 -8 70 -13 119 -26 24 -6 71 -13 105 -15 33 -2
61 -4 61 -5 0 -1 44 -5 160 -14 28 -2 50 -5 50 -6 0 -11 559 -16 700 -6 44 3
104 7 132 9 29 1 53 4 53 8 0 3 10 6 23 6 12 1 38 4 57 7 91 14 136 20 143 18
4 -1 7 2 7 6 0 4 12 7 28 7 15 -1 32 2 37 6 6 3 28 10 50 14 22 3 48 14 58 22
9 9 17 13 17 9 0 -9 77 31 120 63 49 36 110 97 110 111 0 6 4 9 8 6 8 -5 40
41 40 58 0 5 7 13 16 18 9 5 14 13 11 19 -4 5 -1 9 4 9 6 0 11 9 11 19 0 11 5
21 10 23 6 2 12 13 13 26 0 12 6 22 11 22 5 0 7 3 3 6 -3 3 3 26 13 50 11 24
21 54 22 67 2 12 7 27 11 33 4 7 8 28 9 48 2 20 6 36 10 36 3 0 5 11 3 25 -1
14 1 28 5 30 4 2 6 16 5 30 -2 14 1 27 6 30 4 3 4 16 -1 29 -5 13 -6 26 -4 29
15 15 25 326 13 385 -5 21 -3 32 5 32 8 0 8 2 0 8 -6 4 -10 22 -9 40 1 18 -2
35 -7 38 -5 3 -4 12 3 20 6 8 7 14 2 14 -5 0 -10 12 -10 28 -1 31 -12 134 -18
172 -9 55 -16 107 -20 155 -4 47 -6 63 -21 118 -3 12 -7 34 -8 49 0 16 -5 28
-10 28 -5 0 -7 2 -4 6 3 3 1 22 -4 42 -5 20 -11 53 -13 73 -1 20 -7 45 -13 55
-5 10 -10 22 -11 27 -1 7 -2 11 -6 25 -1 4 -5 25 -10 47 -4 22 -10 45 -14 50
-3 6 -7 19 -8 29 -2 11 -7 24 -12 30 -5 6 -7 19 -6 29 2 9 -1 17 -6 17 -4 0
-6 7 -3 15 4 8 1 15 -5 15 -6 0 -10 3 -9 7 5 17 -25 113 -35 113 -6 0 -8 3 -4
6 5 5 -42 150 -70 214 -3 8 -5 18 -5 23 1 4 -2 7 -8 7 -5 0 -7 6 -4 14 3 8 1
17 -5 21 -6 3 -11 15 -11 26 0 10 -5 19 -11 19 -5 0 -8 4 -5 8 3 5 -3 24 -13
43 -10 19 -22 45 -26 59 -4 14 -21 53 -36 88 -16 34 -29 67 -29 73 0 6 -5 7
-12 3 -6 -4 -8 -3 -5 3 7 11 -41 113 -58 125 -5 4 -6 8 -1 8 5 0 3 6 -3 13 -6
8 -8 17 -4 20 3 4 1 7 -6 7 -7 0 -10 4 -6 9 3 5 1 12 -4 15 -5 4 -27 41 -48
84 -21 42 -41 79 -45 80 -5 2 -8 12 -8 22 0 9 -7 23 -15 30 -8 7 -12 16 -9 21
3 5 2 9 -3 9 -4 0 -14 13 -21 30 -7 16 -24 45 -37 65 -14 19 -22 35 -19 35 2
0 -4 10 -16 22 -11 12 -20 28 -20 35 0 7 -4 13 -8 13 -8 0 -36 51 -32 59 1 2
-4 7 -11 12 -22 13 -10 18 86 36 17 3 38 9 48 14 9 6 22 7 27 4 6 -3 10 -1 10
5 0 6 4 9 9 5 5 -3 12 -1 16 5 4 6 10 8 14 5 5 -2 31 4 60 14 28 11 51 17 51
14 0 -3 12 2 26 12 18 11 24 12 18 4 -6 -11 -5 -12 7 -3 11 9 67 31 99 39 3 1
13 5 23 8 9 4 25 10 35 14 9 3 20 5 25 5 4 -1 7 2 7 6 0 4 10 8 22 9 11 1 24
7 28 13 4 7 10 11 14 10 4 -1 21 4 39 11 18 6 34 13 37 13 3 1 15 7 26 14 12
6 24 8 28 5 3 -3 6 -1 6 5 0 6 15 14 33 17 17 4 34 10 37 14 3 3 59 33 125 65
66 33 122 62 125 65 3 3 12 7 20 9 8 2 22 10 31 18 9 8 19 11 22 7 4 -3 7 -1
7 6 0 7 5 9 10 6 6 -3 13 0 16 8 3 9 17 18 32 22 15 4 29 10 32 15 3 4 27 20
54 34 27 14 45 26 40 26 -5 0 10 10 33 23 23 12 54 32 70 45 15 12 31 22 36
22 9 0 30 17 55 43 9 9 21 17 26 17 11 0 117 78 128 94 5 7 8 7 8 1 0 -7 3 -6
8 0 4 6 35 33 70 60 35 28 79 65 98 83 20 17 40 32 45 32 6 0 7 5 4 10 -3 6
-1 10 5 10 6 0 25 15 43 33 17 17 35 31 39 29 4 -1 8 2 8 8 0 5 30 40 68 78
85 86 162 174 162 185 0 4 3 6 8 3 4 -2 16 13 26 35 10 21 23 36 27 33 5 -3 9
2 9 10 0 8 8 20 18 25 9 6 14 11 10 11 -4 0 3 11 16 25 13 14 36 44 52 67 16
24 32 45 37 46 4 2 7 12 7 23 0 10 4 19 9 19 10 0 76 130 73 143 -1 4 2 7 7 7
9 0 26 48 23 63 -1 4 1 7 6 7 8 0 20 28 50 115 35 104 42 152 42 258 -2 141
-3 157 -12 157 -4 0 -8 9 -8 20 0 19 -19 71 -30 80 -4 3 -12 21 -20 40 -8 19
-22 42 -32 51 -10 9 -18 21 -18 26 0 6 -38 49 -85 97 -47 47 -85 84 -85 81 0
-3 -11 5 -25 17 -62 56 -135 112 -135 104 0 -3 -10 5 -23 17 -39 37 -64 55
-85 61 -11 4 -23 13 -26 21 -3 8 -12 15 -21 15 -8 0 -15 5 -15 10 0 6 -7 10
-15 10 -9 0 -18 7 -21 15 -4 8 -10 13 -14 10 -4 -3 -19 4 -33 15 -14 11 -30
20 -35 20 -5 0 -13 7 -16 16 -3 9 -12 14 -19 11 -6 -2 -19 3 -27 12 -8 9 -33
25 -54 36 -22 11 -45 25 -52 32 -6 7 -18 14 -25 15 -7 2 -22 11 -33 20 -10 10
-23 15 -28 12 -4 -3 -8 -1 -8 5 0 6 -11 13 -25 17 -14 3 -25 10 -25 15 0 5 -7
9 -15 9 -8 0 -15 5 -15 11 0 5 -4 8 -9 4 -5 -3 -15 1 -23 8 -12 12 -49 30 -56
27 -1 0 -9 5 -17 12 -36 32 -50 43 -53 40 -4 -6 -111 48 -117 59 -4 5 -15 9
-26 9 -10 0 -19 5 -19 11 0 5 -4 8 -9 5 -5 -4 -11 -3 -13 2 -4 10 -214 115
-224 112 -4 -1 -10 2 -13 7 -9 14 -228 116 -248 116 -7 0 -13 4 -13 9 0 4 -7
8 -15 8 -8 0 -15 5 -15 10 0 6 -3 9 -7 8 -5 -1 -24 4 -43 11 -19 8 -37 15 -40
16 -3 1 -18 8 -35 15 -16 7 -39 15 -50 17 -10 2 -22 8 -26 14 -3 6 -9 10 -13
9 -7 -1 -107 34 -141 50 -25 12 -104 39 -129 45 -10 2 -24 9 -32 16 -8 6 -14
9 -14 6 0 -3 -15 0 -34 8 -18 8 -36 11 -40 8 -3 -4 -6 0 -6 7 0 7 -3 11 -6 8
-3 -4 -21 0 -40 8 -19 8 -34 11 -34 8 0 -4 -6 -1 -13 5 -8 6 -24 13 -38 15
-13 3 -24 5 -24 6 0 3 -39 12 -62 14 -12 1 -29 9 -39 17 -9 8 -19 13 -21 11
-5 -4 -76 9 -88 17 -5 3 -19 7 -30 8 -11 2 -24 8 -29 13 -4 4 -15 6 -22 3 -8
-3 -14 -1 -14 4 0 5 -8 9 -17 9 -17 1 -38 5 -103 19 -73 16 -110 22 -110 17 0
-2 -8 2 -17 9 -14 12 -15 12 -9 1 7 -11 4 -12 -13 -3 -11 6 -44 13 -73 16 -29
2 -71 7 -93 10 -22 3 -61 7 -86 9 -25 1 -52 7 -59 11 -9 6 -11 4 -5 -5 6 -9 4
-11 -5 -5 -35 21 -1003 23 -1037 2 -7 -5 -10 0 -8 15 5 27 13 62 15 66 2 1 3
5 5 10 1 4 5 19 9 33 4 14 9 34 11 45 2 10 4 20 5 22 4 4 15 53 25 107 2 11 4
20 5 20 2 0 6 20 14 70 19 112 23 215 12 356 -7 92 -7 89 -31 194 -9 39 -17
76 -17 83 -1 6 -5 12 -10 12 -4 0 -8 8 -8 19 0 10 -7 34 -15 54 -8 19 -11 37
-8 41 4 3 1 6 -5 6 -6 0 -16 16 -23 34 -7 19 -15 33 -19 31 -3 -2 -6 4 -7 14
-3 32 -73 131 -140 197 -35 35 -68 64 -73 64 -5 0 -15 6 -22 13 -17 17 -141
76 -173 82 -5 1 -12 3 -15 4 -7 3 -48 11 -80 14 -14 2 -30 5 -35 8 -9 4 -150
3 -150 -1 0 -1 -9 -3 -20 -5 -65 -11 -119 -22 -122 -25 -2 -2 -6 -3 -10 -4 -5
-1 -14 -5 -21 -10 -7 -4 -16 -5 -19 -2 -4 3 -15 -2 -26 -11 -10 -10 -22 -17
-26 -16 -12 5 -91 -30 -91 -39 0 -6 -7 -8 -15 -4 -8 3 -15 2 -15 -3 0 -5 -13
-14 -30 -21 -16 -7 -30 -17 -30 -23 0 -6 -3 -7 -6 -4 -4 4 -19 -2 -34 -13 -15
-11 -30 -17 -34 -13 -3 3 -6 1 -6 -5 0 -7 -7 -12 -15 -12 -8 0 -15 -4 -15 -8
0 -6 -57 -33 -68 -32 -1 0 -14 -11 -29 -24 -15 -14 -30 -23 -35 -20 -4 3 -8 0
-8 -6 0 -6 -4 -8 -10 -5 -5 3 -10 1 -10 -6 0 -7 -3 -10 -6 -6 -6 5 -15 0 -49
-30 -7 -7 -19 -13 -25 -13 -6 0 -21 -9 -33 -21 -12 -11 -37 -27 -54 -36 -18
-8 -33 -19 -33 -24 0 -5 -7 -9 -15 -9 -8 0 -24 -9 -34 -19 -10 -10 -28 -22
-40 -26 -12 -3 -21 -11 -21 -16 0 -5 -7 -9 -15 -9 -8 0 -15 -4 -15 -10 0 -5
-7 -10 -15 -10 -8 0 -15 -4 -15 -9 0 -5 -13 -14 -30 -21 -16 -7 -30 -16 -30
-21 0 -5 -7 -9 -15 -9 -8 0 -15 -3 -15 -7 0 -5 -10 -13 -23 -19 -12 -6 -51
-27 -87 -45 -36 -18 -72 -36 -80 -40 -16 -7 -15 -46 -26 621 -8 489 -5 820 6
820 3 0 5 30 6 68 1 100 8 192 15 192 3 0 4 12 4 28 -2 23 6 68 30 169 3 12 9
33 14 45 4 13 6 29 4 36 -3 6 -1 12 5 12 5 0 26 25 47 55 20 30 41 55 46 55 5
0 9 4 9 10 0 9 31 46 92 111 14 15 24 30 21 33 -3 3 2 8 11 12 9 3 16 13 16
20 0 8 6 17 13 20 7 2 24 22 37 44 14 22 28 40 33 40 4 0 5 5 2 10 -3 6 -1 10
5 10 6 0 8 5 5 10 -3 6 -2 10 3 10 12 0 88 111 84 123 -1 4 3 7 8 7 6 0 10 7
10 15 0 8 4 15 9 15 8 0 24 37 22 53 -1 4 3 7 8 7 9 0 35 54 31 66 -1 4 2 10
7 13 24 16 99 263 87 283 -3 4 -1 8 5 8 5 0 8 9 6 20 -2 11 -1 21 3 24 8 5 6
233 -3 295 -3 25 -11 53 -16 64 -6 10 -8 25 -5 33 3 8 1 14 -4 14 -6 0 -10 8
-10 18 0 10 -6 27 -14 37 -8 11 -12 25 -9 32 3 7 -2 13 -12 13 -9 0 -14 4 -11
8 6 11 -33 92 -44 92 -5 0 -12 10 -16 22 -3 12 -30 45 -60 74 -29 29 -50 55
-47 58 4 3 -1 6 -10 6 -9 0 -20 6 -24 13 -4 8 -24 22 -43 33 -19 10 -37 21
-40 25 -9 9 -85 43 -92 41 -5 -1 -8 2 -8 7 0 10 -80 32 -92 25 -4 -3 -8 0 -8
5 0 6 -12 11 -27 12 -16 0 -37 4 -48 8 -11 5 -25 4 -32 -1 -7 -6 -13 -6 -13
-2 0 9 -118 13 -126 5z"/>
</g>
</svg>
